<?xml version="1.0" encoding="utf-8" standalone="no"?>
<!DOCTYPE svg PUBLIC "-//W3C//DTD SVG 1.1//EN"
  "http://www.w3.org/Graphics/SVG/1.1/DTD/svg11.dtd">
<!-- Created with matplotlib (http://matplotlib.org/) -->
<svg height="360pt" version="1.1" viewBox="0 0 720 360" width="720pt" xmlns="http://www.w3.org/2000/svg" xmlns:xlink="http://www.w3.org/1999/xlink">
 <defs>
  <style type="text/css">
*{stroke-linecap:butt;stroke-linejoin:round;}
  </style>
 </defs>
 <g id="figure_1">
  <g id="patch_1">
   <path d="M 0 360 
L 720 360 
L 720 0 
L 0 0 
z
" style="fill:none;"/>
  </g>
  <g id="axes_1">
   <g id="patch_2">
    <path d="M 90 315 
L 343.636364 315 
L 343.636364 43.2 
L 90 43.2 
z
" style="fill:none;"/>
   </g>
   <g id="matplotlib.axis_1">
    <g id="xtick_1">
     <g id="line2d_1">
      <defs>
       <path d="M 0 0 
L 0 3.5 
" id="me3320ed443" style="stroke:#000000;stroke-width:0.8;"/>
      </defs>
      <g>
       <use style="stroke:#000000;stroke-width:0.8;" x="115.940083" xlink:href="#me3320ed443" y="315"/>
      </g>
     </g>
     <g id="text_1">
      <!-- 1900 -->
      <defs>
       <path d="M 12.40625 8.296875 
L 28.515625 8.296875 
L 28.515625 63.921875 
L 10.984375 60.40625 
L 10.984375 69.390625 
L 28.421875 72.90625 
L 38.28125 72.90625 
L 38.28125 8.296875 
L 54.390625 8.296875 
L 54.390625 0 
L 12.40625 0 
z
" id="DejaVuSans-31"/>
       <path d="M 10.984375 1.515625 
L 10.984375 10.5 
Q 14.703125 8.734375 18.5 7.8125 
Q 22.3125 6.890625 25.984375 6.890625 
Q 35.75 6.890625 40.890625 13.453125 
Q 46.046875 20.015625 46.78125 33.40625 
Q 43.953125 29.203125 39.59375 26.953125 
Q 35.25 24.703125 29.984375 24.703125 
Q 19.046875 24.703125 12.671875 31.3125 
Q 6.296875 37.9375 6.296875 49.421875 
Q 6.296875 60.640625 12.9375 67.421875 
Q 19.578125 74.21875 30.609375 74.21875 
Q 43.265625 74.21875 49.921875 64.515625 
Q 56.59375 54.828125 56.59375 36.375 
Q 56.59375 19.140625 48.40625 8.859375 
Q 40.234375 -1.421875 26.421875 -1.421875 
Q 22.703125 -1.421875 18.890625 -0.6875 
Q 15.09375 0.046875 10.984375 1.515625 
z
M 30.609375 32.421875 
Q 37.25 32.421875 41.125 36.953125 
Q 45.015625 41.5 45.015625 49.421875 
Q 45.015625 57.28125 41.125 61.84375 
Q 37.25 66.40625 30.609375 66.40625 
Q 23.96875 66.40625 20.09375 61.84375 
Q 16.21875 57.28125 16.21875 49.421875 
Q 16.21875 41.5 20.09375 36.953125 
Q 23.96875 32.421875 30.609375 32.421875 
z
" id="DejaVuSans-39"/>
       <path d="M 31.78125 66.40625 
Q 24.171875 66.40625 20.328125 58.90625 
Q 16.5 51.421875 16.5 36.375 
Q 16.5 21.390625 20.328125 13.890625 
Q 24.171875 6.390625 31.78125 6.390625 
Q 39.453125 6.390625 43.28125 13.890625 
Q 47.125 21.390625 47.125 36.375 
Q 47.125 51.421875 43.28125 58.90625 
Q 39.453125 66.40625 31.78125 66.40625 
z
M 31.78125 74.21875 
Q 44.046875 74.21875 50.515625 64.515625 
Q 56.984375 54.828125 56.984375 36.375 
Q 56.984375 17.96875 50.515625 8.265625 
Q 44.046875 -1.421875 31.78125 -1.421875 
Q 19.53125 -1.421875 13.0625 8.265625 
Q 6.59375 17.96875 6.59375 36.375 
Q 6.59375 54.828125 13.0625 64.515625 
Q 19.53125 74.21875 31.78125 74.21875 
z
" id="DejaVuSans-30"/>
      </defs>
      <g transform="translate(103.215083 329.598437)scale(0.1 -0.1)">
       <use xlink:href="#DejaVuSans-31"/>
       <use x="63.623047" xlink:href="#DejaVuSans-39"/>
       <use x="127.246094" xlink:href="#DejaVuSans-30"/>
       <use x="190.869141" xlink:href="#DejaVuSans-30"/>
      </g>
     </g>
    </g>
    <g id="xtick_2">
     <g id="line2d_2">
      <g>
       <use style="stroke:#000000;stroke-width:0.8;" x="151.967975" xlink:href="#me3320ed443" y="315"/>
      </g>
     </g>
     <g id="text_2">
      <!-- 1920 -->
      <defs>
       <path d="M 19.1875 8.296875 
L 53.609375 8.296875 
L 53.609375 0 
L 7.328125 0 
L 7.328125 8.296875 
Q 12.9375 14.109375 22.625 23.890625 
Q 32.328125 33.6875 34.8125 36.53125 
Q 39.546875 41.84375 41.421875 45.53125 
Q 43.3125 49.21875 43.3125 52.78125 
Q 43.3125 58.59375 39.234375 62.25 
Q 35.15625 65.921875 28.609375 65.921875 
Q 23.96875 65.921875 18.8125 64.3125 
Q 13.671875 62.703125 7.8125 59.421875 
L 7.8125 69.390625 
Q 13.765625 71.78125 18.9375 73 
Q 24.125 74.21875 28.421875 74.21875 
Q 39.75 74.21875 46.484375 68.546875 
Q 53.21875 62.890625 53.21875 53.421875 
Q 53.21875 48.921875 51.53125 44.890625 
Q 49.859375 40.875 45.40625 35.40625 
Q 44.1875 33.984375 37.640625 27.21875 
Q 31.109375 20.453125 19.1875 8.296875 
z
" id="DejaVuSans-32"/>
      </defs>
      <g transform="translate(139.242975 329.598437)scale(0.1 -0.1)">
       <use xlink:href="#DejaVuSans-31"/>
       <use x="63.623047" xlink:href="#DejaVuSans-39"/>
       <use x="127.246094" xlink:href="#DejaVuSans-32"/>
       <use x="190.869141" xlink:href="#DejaVuSans-30"/>
      </g>
     </g>
    </g>
    <g id="xtick_3">
     <g id="line2d_3">
      <g>
       <use style="stroke:#000000;stroke-width:0.8;" x="187.995868" xlink:href="#me3320ed443" y="315"/>
      </g>
     </g>
     <g id="text_3">
      <!-- 1940 -->
      <defs>
       <path d="M 37.796875 64.3125 
L 12.890625 25.390625 
L 37.796875 25.390625 
z
M 35.203125 72.90625 
L 47.609375 72.90625 
L 47.609375 25.390625 
L 58.015625 25.390625 
L 58.015625 17.1875 
L 47.609375 17.1875 
L 47.609375 0 
L 37.796875 0 
L 37.796875 17.1875 
L 4.890625 17.1875 
L 4.890625 26.703125 
z
" id="DejaVuSans-34"/>
      </defs>
      <g transform="translate(175.270868 329.598437)scale(0.1 -0.1)">
       <use xlink:href="#DejaVuSans-31"/>
       <use x="63.623047" xlink:href="#DejaVuSans-39"/>
       <use x="127.246094" xlink:href="#DejaVuSans-34"/>
       <use x="190.869141" xlink:href="#DejaVuSans-30"/>
      </g>
     </g>
    </g>
    <g id="xtick_4">
     <g id="line2d_4">
      <g>
       <use style="stroke:#000000;stroke-width:0.8;" x="224.02376" xlink:href="#me3320ed443" y="315"/>
      </g>
     </g>
     <g id="text_4">
      <!-- 1960 -->
      <defs>
       <path d="M 33.015625 40.375 
Q 26.375 40.375 22.484375 35.828125 
Q 18.609375 31.296875 18.609375 23.390625 
Q 18.609375 15.53125 22.484375 10.953125 
Q 26.375 6.390625 33.015625 6.390625 
Q 39.65625 6.390625 43.53125 10.953125 
Q 47.40625 15.53125 47.40625 23.390625 
Q 47.40625 31.296875 43.53125 35.828125 
Q 39.65625 40.375 33.015625 40.375 
z
M 52.59375 71.296875 
L 52.59375 62.3125 
Q 48.875 64.0625 45.09375 64.984375 
Q 41.3125 65.921875 37.59375 65.921875 
Q 27.828125 65.921875 22.671875 59.328125 
Q 17.53125 52.734375 16.796875 39.40625 
Q 19.671875 43.65625 24.015625 45.921875 
Q 28.375 48.1875 33.59375 48.1875 
Q 44.578125 48.1875 50.953125 41.515625 
Q 57.328125 34.859375 57.328125 23.390625 
Q 57.328125 12.15625 50.6875 5.359375 
Q 44.046875 -1.421875 33.015625 -1.421875 
Q 20.359375 -1.421875 13.671875 8.265625 
Q 6.984375 17.96875 6.984375 36.375 
Q 6.984375 53.65625 15.1875 63.9375 
Q 23.390625 74.21875 37.203125 74.21875 
Q 40.921875 74.21875 44.703125 73.484375 
Q 48.484375 72.75 52.59375 71.296875 
z
" id="DejaVuSans-36"/>
      </defs>
      <g transform="translate(211.29876 329.598437)scale(0.1 -0.1)">
       <use xlink:href="#DejaVuSans-31"/>
       <use x="63.623047" xlink:href="#DejaVuSans-39"/>
       <use x="127.246094" xlink:href="#DejaVuSans-36"/>
       <use x="190.869141" xlink:href="#DejaVuSans-30"/>
      </g>
     </g>
    </g>
    <g id="xtick_5">
     <g id="line2d_5">
      <g>
       <use style="stroke:#000000;stroke-width:0.8;" x="260.051653" xlink:href="#me3320ed443" y="315"/>
      </g>
     </g>
     <g id="text_5">
      <!-- 1980 -->
      <defs>
       <path d="M 31.78125 34.625 
Q 24.75 34.625 20.71875 30.859375 
Q 16.703125 27.09375 16.703125 20.515625 
Q 16.703125 13.921875 20.71875 10.15625 
Q 24.75 6.390625 31.78125 6.390625 
Q 38.8125 6.390625 42.859375 10.171875 
Q 46.921875 13.96875 46.921875 20.515625 
Q 46.921875 27.09375 42.890625 30.859375 
Q 38.875 34.625 31.78125 34.625 
z
M 21.921875 38.8125 
Q 15.578125 40.375 12.03125 44.71875 
Q 8.5 49.078125 8.5 55.328125 
Q 8.5 64.0625 14.71875 69.140625 
Q 20.953125 74.21875 31.78125 74.21875 
Q 42.671875 74.21875 48.875 69.140625 
Q 55.078125 64.0625 55.078125 55.328125 
Q 55.078125 49.078125 51.53125 44.71875 
Q 48 40.375 41.703125 38.8125 
Q 48.828125 37.15625 52.796875 32.3125 
Q 56.78125 27.484375 56.78125 20.515625 
Q 56.78125 9.90625 50.3125 4.234375 
Q 43.84375 -1.421875 31.78125 -1.421875 
Q 19.734375 -1.421875 13.25 4.234375 
Q 6.78125 9.90625 6.78125 20.515625 
Q 6.78125 27.484375 10.78125 32.3125 
Q 14.796875 37.15625 21.921875 38.8125 
z
M 18.3125 54.390625 
Q 18.3125 48.734375 21.84375 45.5625 
Q 25.390625 42.390625 31.78125 42.390625 
Q 38.140625 42.390625 41.71875 45.5625 
Q 45.3125 48.734375 45.3125 54.390625 
Q 45.3125 60.0625 41.71875 63.234375 
Q 38.140625 66.40625 31.78125 66.40625 
Q 25.390625 66.40625 21.84375 63.234375 
Q 18.3125 60.0625 18.3125 54.390625 
z
" id="DejaVuSans-38"/>
      </defs>
      <g transform="translate(247.326653 329.598437)scale(0.1 -0.1)">
       <use xlink:href="#DejaVuSans-31"/>
       <use x="63.623047" xlink:href="#DejaVuSans-39"/>
       <use x="127.246094" xlink:href="#DejaVuSans-38"/>
       <use x="190.869141" xlink:href="#DejaVuSans-30"/>
      </g>
     </g>
    </g>
    <g id="xtick_6">
     <g id="line2d_6">
      <g>
       <use style="stroke:#000000;stroke-width:0.8;" x="296.079545" xlink:href="#me3320ed443" y="315"/>
      </g>
     </g>
     <g id="text_6">
      <!-- 2000 -->
      <g transform="translate(283.354545 329.598437)scale(0.1 -0.1)">
       <use xlink:href="#DejaVuSans-32"/>
       <use x="63.623047" xlink:href="#DejaVuSans-30"/>
       <use x="127.246094" xlink:href="#DejaVuSans-30"/>
       <use x="190.869141" xlink:href="#DejaVuSans-30"/>
      </g>
     </g>
    </g>
    <g id="xtick_7">
     <g id="line2d_7">
      <g>
       <use style="stroke:#000000;stroke-width:0.8;" x="332.107438" xlink:href="#me3320ed443" y="315"/>
      </g>
     </g>
     <g id="text_7">
      <!-- 2020 -->
      <g transform="translate(319.382438 329.598437)scale(0.1 -0.1)">
       <use xlink:href="#DejaVuSans-32"/>
       <use x="63.623047" xlink:href="#DejaVuSans-30"/>
       <use x="127.246094" xlink:href="#DejaVuSans-32"/>
       <use x="190.869141" xlink:href="#DejaVuSans-30"/>
      </g>
     </g>
    </g>
   </g>
   <g id="matplotlib.axis_2">
    <g id="ytick_1">
     <g id="line2d_8">
      <defs>
       <path d="M 0 0 
L -3.5 0 
" id="mb9701d19bd" style="stroke:#000000;stroke-width:0.8;"/>
      </defs>
      <g>
       <use style="stroke:#000000;stroke-width:0.8;" x="90" xlink:href="#mb9701d19bd" y="302.509371"/>
      </g>
     </g>
     <g id="text_8">
      <!-- 3.0 -->
      <defs>
       <path d="M 40.578125 39.3125 
Q 47.65625 37.796875 51.625 33 
Q 55.609375 28.21875 55.609375 21.1875 
Q 55.609375 10.40625 48.1875 4.484375 
Q 40.765625 -1.421875 27.09375 -1.421875 
Q 22.515625 -1.421875 17.65625 -0.515625 
Q 12.796875 0.390625 7.625 2.203125 
L 7.625 11.71875 
Q 11.71875 9.328125 16.59375 8.109375 
Q 21.484375 6.890625 26.8125 6.890625 
Q 36.078125 6.890625 40.9375 10.546875 
Q 45.796875 14.203125 45.796875 21.1875 
Q 45.796875 27.640625 41.28125 31.265625 
Q 36.765625 34.90625 28.71875 34.90625 
L 20.21875 34.90625 
L 20.21875 43.015625 
L 29.109375 43.015625 
Q 36.375 43.015625 40.234375 45.921875 
Q 44.09375 48.828125 44.09375 54.296875 
Q 44.09375 59.90625 40.109375 62.90625 
Q 36.140625 65.921875 28.71875 65.921875 
Q 24.65625 65.921875 20.015625 65.03125 
Q 15.375 64.15625 9.8125 62.3125 
L 9.8125 71.09375 
Q 15.4375 72.65625 20.34375 73.4375 
Q 25.25 74.21875 29.59375 74.21875 
Q 40.828125 74.21875 47.359375 69.109375 
Q 53.90625 64.015625 53.90625 55.328125 
Q 53.90625 49.265625 50.4375 45.09375 
Q 46.96875 40.921875 40.578125 39.3125 
z
" id="DejaVuSans-33"/>
       <path d="M 10.6875 12.40625 
L 21 12.40625 
L 21 0 
L 10.6875 0 
z
" id="DejaVuSans-2e"/>
      </defs>
      <g transform="translate(67.096875 306.308589)scale(0.1 -0.1)">
       <use xlink:href="#DejaVuSans-33"/>
       <use x="63.623047" xlink:href="#DejaVuSans-2e"/>
       <use x="95.410156" xlink:href="#DejaVuSans-30"/>
      </g>
     </g>
    </g>
    <g id="ytick_2">
     <g id="line2d_9">
      <g>
       <use style="stroke:#000000;stroke-width:0.8;" x="90" xlink:href="#mb9701d19bd" y="246.941062"/>
      </g>
     </g>
     <g id="text_9">
      <!-- 3.5 -->
      <defs>
       <path d="M 10.796875 72.90625 
L 49.515625 72.90625 
L 49.515625 64.59375 
L 19.828125 64.59375 
L 19.828125 46.734375 
Q 21.96875 47.46875 24.109375 47.828125 
Q 26.265625 48.1875 28.421875 48.1875 
Q 40.625 48.1875 47.75 41.5 
Q 54.890625 34.8125 54.890625 23.390625 
Q 54.890625 11.625 47.5625 5.09375 
Q 40.234375 -1.421875 26.90625 -1.421875 
Q 22.3125 -1.421875 17.546875 -0.640625 
Q 12.796875 0.140625 7.71875 1.703125 
L 7.71875 11.625 
Q 12.109375 9.234375 16.796875 8.0625 
Q 21.484375 6.890625 26.703125 6.890625 
Q 35.15625 6.890625 40.078125 11.328125 
Q 45.015625 15.765625 45.015625 23.390625 
Q 45.015625 31 40.078125 35.4375 
Q 35.15625 39.890625 26.703125 39.890625 
Q 22.75 39.890625 18.8125 39.015625 
Q 14.890625 38.140625 10.796875 36.28125 
z
" id="DejaVuSans-35"/>
      </defs>
      <g transform="translate(67.096875 250.740281)scale(0.1 -0.1)">
       <use xlink:href="#DejaVuSans-33"/>
       <use x="63.623047" xlink:href="#DejaVuSans-2e"/>
       <use x="95.410156" xlink:href="#DejaVuSans-35"/>
      </g>
     </g>
    </g>
    <g id="ytick_3">
     <g id="line2d_10">
      <g>
       <use style="stroke:#000000;stroke-width:0.8;" x="90" xlink:href="#mb9701d19bd" y="191.372753"/>
      </g>
     </g>
     <g id="text_10">
      <!-- 4.0 -->
      <g transform="translate(67.096875 195.171972)scale(0.1 -0.1)">
       <use xlink:href="#DejaVuSans-34"/>
       <use x="63.623047" xlink:href="#DejaVuSans-2e"/>
       <use x="95.410156" xlink:href="#DejaVuSans-30"/>
      </g>
     </g>
    </g>
    <g id="ytick_4">
     <g id="line2d_11">
      <g>
       <use style="stroke:#000000;stroke-width:0.8;" x="90" xlink:href="#mb9701d19bd" y="135.804445"/>
      </g>
     </g>
     <g id="text_11">
      <!-- 4.5 -->
      <g transform="translate(67.096875 139.603663)scale(0.1 -0.1)">
       <use xlink:href="#DejaVuSans-34"/>
       <use x="63.623047" xlink:href="#DejaVuSans-2e"/>
       <use x="95.410156" xlink:href="#DejaVuSans-35"/>
      </g>
     </g>
    </g>
    <g id="ytick_5">
     <g id="line2d_12">
      <g>
       <use style="stroke:#000000;stroke-width:0.8;" x="90" xlink:href="#mb9701d19bd" y="80.236136"/>
      </g>
     </g>
     <g id="text_12">
      <!-- 5.0 -->
      <g transform="translate(67.096875 84.035355)scale(0.1 -0.1)">
       <use xlink:href="#DejaVuSans-35"/>
       <use x="63.623047" xlink:href="#DejaVuSans-2e"/>
       <use x="95.410156" xlink:href="#DejaVuSans-30"/>
      </g>
     </g>
    </g>
   </g>
   <g id="line2d_13">
    <defs>
     <path d="M 0 3 
C 0.795609 3 1.55874 2.683901 2.12132 2.12132 
C 2.683901 1.55874 3 0.795609 3 0 
C 3 -0.795609 2.683901 -1.55874 2.12132 -2.12132 
C 1.55874 -2.683901 0.795609 -3 0 -3 
C -0.795609 -3 -1.55874 -2.683901 -2.12132 -2.12132 
C -2.683901 -1.55874 -3 -0.795609 -3 0 
C -3 0.795609 -2.683901 1.55874 -2.12132 2.12132 
C -1.55874 2.683901 -0.795609 3 0 3 
z
" id="m988a42f191" style="stroke:#ff0000;"/>
    </defs>
    <g clip-path="url(#p80b9938773)">
     <use style="fill:#ff0000;stroke:#ff0000;" x="108.734504" xlink:href="#m988a42f191" y="139.045929"/>
     <use style="fill:#ff0000;stroke:#ff0000;" x="115.940083" xlink:href="#m988a42f191" y="139.724315"/>
     <use style="fill:#ff0000;stroke:#ff0000;" x="123.145661" xlink:href="#m988a42f191" y="55.554545"/>
     <use style="fill:#ff0000;stroke:#ff0000;" x="130.35124" xlink:href="#m988a42f191" y="174.182289"/>
     <use style="fill:#ff0000;stroke:#ff0000;" x="137.556818" xlink:href="#m988a42f191" y="202.117803"/>
     <use style="fill:#ff0000;stroke:#ff0000;" x="151.967975" xlink:href="#m988a42f191" y="239.215659"/>
     <use style="fill:#ff0000;stroke:#ff0000;" x="159.173554" xlink:href="#m988a42f191" y="210.872254"/>
     <use style="fill:#ff0000;stroke:#ff0000;" x="166.379132" xlink:href="#m988a42f191" y="233.067093"/>
     <use style="fill:#ff0000;stroke:#ff0000;" x="173.584711" xlink:href="#m988a42f191" y="236.622832"/>
     <use style="fill:#ff0000;stroke:#ff0000;" x="180.790289" xlink:href="#m988a42f191" y="242.628082"/>
     <use style="fill:#ff0000;stroke:#ff0000;" x="202.407025" xlink:href="#m988a42f191" y="228.03638"/>
     <use style="fill:#ff0000;stroke:#ff0000;" x="209.612603" xlink:href="#m988a42f191" y="259.133737"/>
     <use style="fill:#ff0000;stroke:#ff0000;" x="216.818182" xlink:href="#m988a42f191" y="254.006448"/>
     <use style="fill:#ff0000;stroke:#ff0000;" x="224.02376" xlink:href="#m988a42f191" y="279.634112"/>
     <use style="fill:#ff0000;stroke:#ff0000;" x="231.229339" xlink:href="#m988a42f191" y="287.755246"/>
     <use style="fill:#ff0000;stroke:#ff0000;" x="238.434917" xlink:href="#m988a42f191" y="266.034506"/>
     <use style="fill:#ff0000;stroke:#ff0000;" x="245.640496" xlink:href="#m988a42f191" y="287.412842"/>
     <use style="fill:#ff0000;stroke:#ff0000;" x="252.846074" xlink:href="#m988a42f191" y="293.734156"/>
     <use style="fill:#ff0000;stroke:#ff0000;" x="260.051653" xlink:href="#m988a42f191" y="290.749091"/>
     <use style="fill:#ff0000;stroke:#ff0000;" x="267.257231" xlink:href="#m988a42f191" y="295.226689"/>
     <use style="fill:#ff0000;stroke:#ff0000;" x="274.46281" xlink:href="#m988a42f191" y="292.10993"/>
     <use style="fill:#ff0000;stroke:#ff0000;" x="281.668388" xlink:href="#m988a42f191" y="284.603368"/>
     <use style="fill:#ff0000;stroke:#ff0000;" x="288.873967" xlink:href="#m988a42f191" y="286.666575"/>
     <use style="fill:#ff0000;stroke:#ff0000;" x="296.079545" xlink:href="#m988a42f191" y="293.031788"/>
     <use style="fill:#ff0000;stroke:#ff0000;" x="303.285124" xlink:href="#m988a42f191" y="291.100275"/>
     <use style="fill:#ff0000;stroke:#ff0000;" x="310.490702" xlink:href="#m988a42f191" y="302.645455"/>
     <use style="fill:#ff0000;stroke:#ff0000;" x="317.696281" xlink:href="#m988a42f191" y="298.738531"/>
    </g>
   </g>
   <g id="line2d_14">
    <path clip-path="url(#p80b9938773)" d="M 101.528926 260.145038 
L 103.316356 212.56786 
L 105.103786 177.71844 
L 106.891217 152.878203 
L 108.678647 135.862554 
L 110.466077 124.921456 
L 112.253508 118.657655 
L 114.040938 115.959585 
L 115.828368 115.946435 
L 117.615799 117.923277 
L 119.403229 121.344512 
L 121.190659 125.784146 
L 122.97809 130.911697 
L 126.55295 142.272994 
L 131.915241 159.823728 
L 135.490102 170.888377 
L 139.064963 181.094943 
L 142.639823 190.35048 
L 146.214684 198.659498 
L 149.789544 206.078306 
L 153.364405 212.687665 
L 156.939266 218.576804 
L 160.514126 223.834454 
L 164.088987 228.544096 
L 167.663848 232.781738 
L 171.238708 236.615135 
L 174.813569 240.103822 
L 178.38843 243.299582 
L 181.96329 246.247095 
L 187.325581 250.285132 
L 192.687872 253.955611 
L 198.050163 257.340978 
L 205.199885 261.517894 
L 212.349606 265.40502 
L 221.286758 269.957117 
L 230.223909 274.228987 
L 239.161061 278.233738 
L 246.310782 281.226851 
L 253.460504 284.001144 
L 260.610225 286.517299 
L 265.972516 288.208559 
L 271.334807 289.711941 
L 276.697098 291.013358 
L 282.059389 292.107183 
L 287.42168 293.003528 
L 294.571401 293.961452 
L 303.508553 295.119239 
L 307.083413 295.752385 
L 310.658274 296.616815 
L 314.233135 297.830652 
L 316.020565 298.609118 
L 317.807995 299.523312 
L 319.595426 300.587215 
L 321.382856 301.811096 
L 323.170286 303.198979 
L 326.745147 306.429576 
L 332.107438 311.750036 
L 332.107438 311.750036 
" style="fill:none;stroke:#0000ff;stroke-linecap:square;stroke-width:2;"/>
   </g>
   <g id="line2d_15">
    <path clip-path="url(#p80b9938773)" d="M 101.528926 77.519317 
L 103.316356 85.907754 
L 105.103786 90.92724 
L 106.891217 93.334773 
L 108.678647 93.519363 
L 110.466077 91.940588 
L 112.253508 89.725476 
L 114.040938 88.381449 
L 115.828368 88.821797 
L 117.615799 91.163745 
L 119.403229 95.101754 
L 121.190659 100.214073 
L 122.97809 106.102986 
L 126.55295 118.981486 
L 131.915241 138.284245 
L 135.490102 150.133633 
L 139.064963 160.925344 
L 142.639823 170.655643 
L 146.214684 179.383943 
L 149.789544 187.191639 
L 153.364405 194.166402 
L 156.939266 200.396114 
L 160.514126 205.966139 
L 164.088987 210.957751 
L 167.663848 215.447044 
L 171.238708 219.504129 
L 174.813569 223.192602 
L 178.38843 226.569251 
L 181.96329 229.684002 
L 185.538151 232.580066 
L 190.900442 236.592981 
L 196.262733 240.294718 
L 201.625024 243.758244 
L 208.774745 248.090166 
L 215.924467 252.155813 
L 223.074188 255.980736 
L 230.223909 259.559702 
L 237.373631 262.868486 
L 244.523352 265.873662 
L 249.885643 267.906633 
L 255.247934 269.733125 
L 260.610225 271.336655 
L 265.972516 272.697497 
L 271.334807 273.789271 
L 276.697098 274.574912 
L 280.271958 274.904387 
L 283.846819 275.058698 
L 287.42168 275.022274 
L 290.99654 274.787917 
L 294.571401 274.369172 
L 305.295983 272.804475 
L 308.870844 272.509882 
L 310.658274 272.224833 
L 312.445704 271.487928 
L 314.233135 269.721525 
L 316.020565 266.049674 
L 317.807995 259.393158 
L 319.595426 248.606452 
L 321.382856 232.471814 
L 323.170286 209.545947 
L 324.957717 177.978929 
L 326.745147 135.353573 
L 328.532577 78.526697 
L 330.400676 -1 
L 330.400676 -1 
" style="fill:none;stroke:#0000ff;stroke-dasharray:3.7,1.6;stroke-dashoffset:0;"/>
   </g>
   <g id="line2d_16">
    <path clip-path="url(#p80b9938773)" d="M 102.940511 361 
L 103.316356 339.227966 
L 105.103786 264.50964 
L 106.891217 212.421633 
L 108.678647 178.205746 
L 110.466077 157.902324 
L 112.253508 147.589834 
L 114.040938 143.537721 
L 115.828368 143.071072 
L 117.615799 144.682809 
L 119.403229 147.58727 
L 121.190659 151.35422 
L 122.97809 155.720408 
L 126.55295 165.564501 
L 135.490102 191.643121 
L 139.064963 201.264541 
L 142.639823 210.045318 
L 146.214684 217.935052 
L 149.789544 224.964974 
L 153.364405 231.208927 
L 156.939266 236.757495 
L 160.514126 241.702769 
L 164.088987 246.130441 
L 167.663848 250.116433 
L 171.238708 253.72614 
L 174.813569 257.015043 
L 178.38843 260.029914 
L 181.96329 262.810189 
L 187.325581 266.612432 
L 192.687872 270.053864 
L 198.050163 273.209177 
L 203.412454 276.139423 
L 210.562176 279.782328 
L 219.499327 284.042704 
L 230.223909 288.898272 
L 244.523352 295.121796 
L 255.247934 299.579008 
L 264.185086 303.057388 
L 271.334807 305.63461 
L 282.059389 309.209862 
L 290.99654 312.22834 
L 296.358831 314.251844 
L 303.508553 317.237867 
L 307.083413 318.848439 
L 308.870844 319.787581 
L 310.658274 321.008797 
L 312.445704 322.856164 
L 314.233135 325.93978 
L 316.020565 331.168562 
L 317.807995 339.653466 
L 319.595426 352.567978 
L 320.406497 361 
L 320.406497 361 
" style="fill:none;stroke:#0000ff;stroke-dasharray:3.7,1.6;stroke-dashoffset:0;"/>
   </g>
   <g id="patch_3">
    <path d="M 90 315 
L 90 43.2 
" style="fill:none;stroke:#000000;stroke-linecap:square;stroke-linejoin:miter;stroke-width:0.8;"/>
   </g>
   <g id="patch_4">
    <path d="M 343.636364 315 
L 343.636364 43.2 
" style="fill:none;stroke:#000000;stroke-linecap:square;stroke-linejoin:miter;stroke-width:0.8;"/>
   </g>
   <g id="patch_5">
    <path d="M 90 315 
L 343.636364 315 
" style="fill:none;stroke:#000000;stroke-linecap:square;stroke-linejoin:miter;stroke-width:0.8;"/>
   </g>
   <g id="patch_6">
    <path d="M 90 43.2 
L 343.636364 43.2 
" style="fill:none;stroke:#000000;stroke-linecap:square;stroke-linejoin:miter;stroke-width:0.8;"/>
   </g>
  </g>
  <g id="axes_2">
   <g id="patch_7">
    <path d="M 394.363636 315 
L 648 315 
L 648 43.2 
L 394.363636 43.2 
z
" style="fill:none;"/>
   </g>
   <g id="matplotlib.axis_3">
    <g id="xtick_8">
     <g id="line2d_17">
      <g>
       <use style="stroke:#000000;stroke-width:0.8;" x="394.363636" xlink:href="#me3320ed443" y="315"/>
      </g>
     </g>
     <g id="text_13">
      <!-- 0 -->
      <g transform="translate(391.182386 329.598437)scale(0.1 -0.1)">
       <use xlink:href="#DejaVuSans-30"/>
      </g>
     </g>
    </g>
    <g id="xtick_9">
     <g id="line2d_18">
      <g>
       <use style="stroke:#000000;stroke-width:0.8;" x="439.655844" xlink:href="#me3320ed443" y="315"/>
      </g>
     </g>
     <g id="text_14">
      <!-- 5 -->
      <g transform="translate(436.474594 329.598437)scale(0.1 -0.1)">
       <use xlink:href="#DejaVuSans-35"/>
      </g>
     </g>
    </g>
    <g id="xtick_10">
     <g id="line2d_19">
      <g>
       <use style="stroke:#000000;stroke-width:0.8;" x="484.948052" xlink:href="#me3320ed443" y="315"/>
      </g>
     </g>
     <g id="text_15">
      <!-- 10 -->
      <g transform="translate(478.585552 329.598437)scale(0.1 -0.1)">
       <use xlink:href="#DejaVuSans-31"/>
       <use x="63.623047" xlink:href="#DejaVuSans-30"/>
      </g>
     </g>
    </g>
    <g id="xtick_11">
     <g id="line2d_20">
      <g>
       <use style="stroke:#000000;stroke-width:0.8;" x="530.24026" xlink:href="#me3320ed443" y="315"/>
      </g>
     </g>
     <g id="text_16">
      <!-- 15 -->
      <g transform="translate(523.87776 329.598437)scale(0.1 -0.1)">
       <use xlink:href="#DejaVuSans-31"/>
       <use x="63.623047" xlink:href="#DejaVuSans-35"/>
      </g>
     </g>
    </g>
    <g id="xtick_12">
     <g id="line2d_21">
      <g>
       <use style="stroke:#000000;stroke-width:0.8;" x="575.532468" xlink:href="#me3320ed443" y="315"/>
      </g>
     </g>
     <g id="text_17">
      <!-- 20 -->
      <g transform="translate(569.169968 329.598437)scale(0.1 -0.1)">
       <use xlink:href="#DejaVuSans-32"/>
       <use x="63.623047" xlink:href="#DejaVuSans-30"/>
      </g>
     </g>
    </g>
    <g id="xtick_13">
     <g id="line2d_22">
      <g>
       <use style="stroke:#000000;stroke-width:0.8;" x="620.824675" xlink:href="#me3320ed443" y="315"/>
      </g>
     </g>
     <g id="text_18">
      <!-- 25 -->
      <g transform="translate(614.462175 329.598437)scale(0.1 -0.1)">
       <use xlink:href="#DejaVuSans-32"/>
       <use x="63.623047" xlink:href="#DejaVuSans-35"/>
      </g>
     </g>
    </g>
    <g id="text_19">
     <!-- num basis -->
     <defs>
      <path d="M 54.890625 33.015625 
L 54.890625 0 
L 45.90625 0 
L 45.90625 32.71875 
Q 45.90625 40.484375 42.875 44.328125 
Q 39.84375 48.1875 33.796875 48.1875 
Q 26.515625 48.1875 22.3125 43.546875 
Q 18.109375 38.921875 18.109375 30.90625 
L 18.109375 0 
L 9.078125 0 
L 9.078125 54.6875 
L 18.109375 54.6875 
L 18.109375 46.1875 
Q 21.34375 51.125 25.703125 53.5625 
Q 30.078125 56 35.796875 56 
Q 45.21875 56 50.046875 50.171875 
Q 54.890625 44.34375 54.890625 33.015625 
z
" id="DejaVuSans-6e"/>
      <path d="M 8.5 21.578125 
L 8.5 54.6875 
L 17.484375 54.6875 
L 17.484375 21.921875 
Q 17.484375 14.15625 20.5 10.265625 
Q 23.53125 6.390625 29.59375 6.390625 
Q 36.859375 6.390625 41.078125 11.03125 
Q 45.3125 15.671875 45.3125 23.6875 
L 45.3125 54.6875 
L 54.296875 54.6875 
L 54.296875 0 
L 45.3125 0 
L 45.3125 8.40625 
Q 42.046875 3.421875 37.71875 1 
Q 33.40625 -1.421875 27.6875 -1.421875 
Q 18.265625 -1.421875 13.375 4.4375 
Q 8.5 10.296875 8.5 21.578125 
z
M 31.109375 56 
z
" id="DejaVuSans-75"/>
      <path d="M 52 44.1875 
Q 55.375 50.25 60.0625 53.125 
Q 64.75 56 71.09375 56 
Q 79.640625 56 84.28125 50.015625 
Q 88.921875 44.046875 88.921875 33.015625 
L 88.921875 0 
L 79.890625 0 
L 79.890625 32.71875 
Q 79.890625 40.578125 77.09375 44.375 
Q 74.3125 48.1875 68.609375 48.1875 
Q 61.625 48.1875 57.5625 43.546875 
Q 53.515625 38.921875 53.515625 30.90625 
L 53.515625 0 
L 44.484375 0 
L 44.484375 32.71875 
Q 44.484375 40.625 41.703125 44.40625 
Q 38.921875 48.1875 33.109375 48.1875 
Q 26.21875 48.1875 22.15625 43.53125 
Q 18.109375 38.875 18.109375 30.90625 
L 18.109375 0 
L 9.078125 0 
L 9.078125 54.6875 
L 18.109375 54.6875 
L 18.109375 46.1875 
Q 21.1875 51.21875 25.484375 53.609375 
Q 29.78125 56 35.6875 56 
Q 41.65625 56 45.828125 52.96875 
Q 50 49.953125 52 44.1875 
z
" id="DejaVuSans-6d"/>
      <path id="DejaVuSans-20"/>
      <path d="M 48.6875 27.296875 
Q 48.6875 37.203125 44.609375 42.84375 
Q 40.53125 48.484375 33.40625 48.484375 
Q 26.265625 48.484375 22.1875 42.84375 
Q 18.109375 37.203125 18.109375 27.296875 
Q 18.109375 17.390625 22.1875 11.75 
Q 26.265625 6.109375 33.40625 6.109375 
Q 40.53125 6.109375 44.609375 11.75 
Q 48.6875 17.390625 48.6875 27.296875 
z
M 18.109375 46.390625 
Q 20.953125 51.265625 25.265625 53.625 
Q 29.59375 56 35.59375 56 
Q 45.5625 56 51.78125 48.09375 
Q 58.015625 40.1875 58.015625 27.296875 
Q 58.015625 14.40625 51.78125 6.484375 
Q 45.5625 -1.421875 35.59375 -1.421875 
Q 29.59375 -1.421875 25.265625 0.953125 
Q 20.953125 3.328125 18.109375 8.203125 
L 18.109375 0 
L 9.078125 0 
L 9.078125 75.984375 
L 18.109375 75.984375 
z
" id="DejaVuSans-62"/>
      <path d="M 34.28125 27.484375 
Q 23.390625 27.484375 19.1875 25 
Q 14.984375 22.515625 14.984375 16.5 
Q 14.984375 11.71875 18.140625 8.90625 
Q 21.296875 6.109375 26.703125 6.109375 
Q 34.1875 6.109375 38.703125 11.40625 
Q 43.21875 16.703125 43.21875 25.484375 
L 43.21875 27.484375 
z
M 52.203125 31.203125 
L 52.203125 0 
L 43.21875 0 
L 43.21875 8.296875 
Q 40.140625 3.328125 35.546875 0.953125 
Q 30.953125 -1.421875 24.3125 -1.421875 
Q 15.921875 -1.421875 10.953125 3.296875 
Q 6 8.015625 6 15.921875 
Q 6 25.140625 12.171875 29.828125 
Q 18.359375 34.515625 30.609375 34.515625 
L 43.21875 34.515625 
L 43.21875 35.40625 
Q 43.21875 41.609375 39.140625 45 
Q 35.0625 48.390625 27.6875 48.390625 
Q 23 48.390625 18.546875 47.265625 
Q 14.109375 46.140625 10.015625 43.890625 
L 10.015625 52.203125 
Q 14.9375 54.109375 19.578125 55.046875 
Q 24.21875 56 28.609375 56 
Q 40.484375 56 46.34375 49.84375 
Q 52.203125 43.703125 52.203125 31.203125 
z
" id="DejaVuSans-61"/>
      <path d="M 44.28125 53.078125 
L 44.28125 44.578125 
Q 40.484375 46.53125 36.375 47.5 
Q 32.28125 48.484375 27.875 48.484375 
Q 21.1875 48.484375 17.84375 46.4375 
Q 14.5 44.390625 14.5 40.28125 
Q 14.5 37.15625 16.890625 35.375 
Q 19.28125 33.59375 26.515625 31.984375 
L 29.59375 31.296875 
Q 39.15625 29.25 43.1875 25.515625 
Q 47.21875 21.78125 47.21875 15.09375 
Q 47.21875 7.46875 41.1875 3.015625 
Q 35.15625 -1.421875 24.609375 -1.421875 
Q 20.21875 -1.421875 15.453125 -0.5625 
Q 10.6875 0.296875 5.421875 2 
L 5.421875 11.28125 
Q 10.40625 8.6875 15.234375 7.390625 
Q 20.0625 6.109375 24.8125 6.109375 
Q 31.15625 6.109375 34.5625 8.28125 
Q 37.984375 10.453125 37.984375 14.40625 
Q 37.984375 18.0625 35.515625 20.015625 
Q 33.0625 21.96875 24.703125 23.78125 
L 21.578125 24.515625 
Q 13.234375 26.265625 9.515625 29.90625 
Q 5.8125 33.546875 5.8125 39.890625 
Q 5.8125 47.609375 11.28125 51.796875 
Q 16.75 56 26.8125 56 
Q 31.78125 56 36.171875 55.265625 
Q 40.578125 54.546875 44.28125 53.078125 
z
" id="DejaVuSans-73"/>
      <path d="M 9.421875 54.6875 
L 18.40625 54.6875 
L 18.40625 0 
L 9.421875 0 
z
M 9.421875 75.984375 
L 18.40625 75.984375 
L 18.40625 64.59375 
L 9.421875 64.59375 
z
" id="DejaVuSans-69"/>
     </defs>
     <g transform="translate(469.914631 350.875)scale(0.2 -0.2)">
      <use xlink:href="#DejaVuSans-6e"/>
      <use x="63.378906" xlink:href="#DejaVuSans-75"/>
      <use x="126.757812" xlink:href="#DejaVuSans-6d"/>
      <use x="224.169922" xlink:href="#DejaVuSans-20"/>
      <use x="255.957031" xlink:href="#DejaVuSans-62"/>
      <use x="319.433594" xlink:href="#DejaVuSans-61"/>
      <use x="380.712891" xlink:href="#DejaVuSans-73"/>
      <use x="432.8125" xlink:href="#DejaVuSans-69"/>
      <use x="460.595703" xlink:href="#DejaVuSans-73"/>
     </g>
    </g>
   </g>
   <g id="matplotlib.axis_4">
    <g id="ytick_6">
     <g id="line2d_23">
      <g>
       <use style="stroke:#000000;stroke-width:0.8;" x="394.363636" xlink:href="#mb9701d19bd" y="272.084211"/>
      </g>
     </g>
     <g id="text_20">
      <!-- 2 -->
      <g transform="translate(381.001136 275.883429)scale(0.1 -0.1)">
       <use xlink:href="#DejaVuSans-32"/>
      </g>
     </g>
    </g>
    <g id="ytick_7">
     <g id="line2d_24">
      <g>
       <use style="stroke:#000000;stroke-width:0.8;" x="394.363636" xlink:href="#mb9701d19bd" y="214.863158"/>
      </g>
     </g>
     <g id="text_21">
      <!-- 4 -->
      <g transform="translate(381.001136 218.662377)scale(0.1 -0.1)">
       <use xlink:href="#DejaVuSans-34"/>
      </g>
     </g>
    </g>
    <g id="ytick_8">
     <g id="line2d_25">
      <g>
       <use style="stroke:#000000;stroke-width:0.8;" x="394.363636" xlink:href="#mb9701d19bd" y="157.642105"/>
      </g>
     </g>
     <g id="text_22">
      <!-- 6 -->
      <g transform="translate(381.001136 161.441324)scale(0.1 -0.1)">
       <use xlink:href="#DejaVuSans-36"/>
      </g>
     </g>
    </g>
    <g id="ytick_9">
     <g id="line2d_26">
      <g>
       <use style="stroke:#000000;stroke-width:0.8;" x="394.363636" xlink:href="#mb9701d19bd" y="100.421053"/>
      </g>
     </g>
     <g id="text_23">
      <!-- 8 -->
      <g transform="translate(381.001136 104.220271)scale(0.1 -0.1)">
       <use xlink:href="#DejaVuSans-38"/>
      </g>
     </g>
    </g>
    <g id="ytick_10">
     <g id="line2d_27">
      <g>
       <use style="stroke:#000000;stroke-width:0.8;" x="394.363636" xlink:href="#mb9701d19bd" y="43.2"/>
      </g>
     </g>
     <g id="text_24">
      <!-- 10 -->
      <g transform="translate(374.638636 46.999219)scale(0.1 -0.1)">
       <use xlink:href="#DejaVuSans-31"/>
       <use x="63.623047" xlink:href="#DejaVuSans-30"/>
      </g>
     </g>
    </g>
   </g>
   <g id="line2d_28">
    <g clip-path="url(#p9d0cb50e5e)">
     <use style="fill:#ff0000;stroke:#ff0000;" x="403.422078" xlink:href="#m988a42f191" y="108.354929"/>
    </g>
   </g>
   <g id="line2d_29">
    <g clip-path="url(#p9d0cb50e5e)">
     <use style="fill:#ff0000;stroke:#ff0000;" x="412.480519" xlink:href="#m988a42f191" y="272.632208"/>
    </g>
   </g>
   <g id="line2d_30">
    <g clip-path="url(#p9d0cb50e5e)">
     <use style="fill:#ff0000;stroke:#ff0000;" x="421.538961" xlink:href="#m988a42f191" y="296.362629"/>
    </g>
   </g>
   <g id="line2d_31">
    <g clip-path="url(#p9d0cb50e5e)">
     <use style="fill:#ff0000;stroke:#ff0000;" x="430.597403" xlink:href="#m988a42f191" y="298.270611"/>
    </g>
   </g>
   <g id="line2d_32">
    <g clip-path="url(#p9d0cb50e5e)">
     <use style="fill:#ff0000;stroke:#ff0000;" x="439.655844" xlink:href="#m988a42f191" y="298.350241"/>
    </g>
   </g>
   <g id="line2d_33">
    <g clip-path="url(#p9d0cb50e5e)">
     <use style="fill:#ff0000;stroke:#ff0000;" x="448.714286" xlink:href="#m988a42f191" y="298.375827"/>
    </g>
   </g>
   <g id="line2d_34">
    <g clip-path="url(#p9d0cb50e5e)">
     <use style="fill:#ff0000;stroke:#ff0000;" x="457.772727" xlink:href="#m988a42f191" y="298.933075"/>
    </g>
   </g>
   <g id="line2d_35">
    <g clip-path="url(#p9d0cb50e5e)">
     <use style="fill:#ff0000;stroke:#ff0000;" x="466.831169" xlink:href="#m988a42f191" y="299.405565"/>
    </g>
   </g>
   <g id="line2d_36">
    <g clip-path="url(#p9d0cb50e5e)">
     <use style="fill:#ff0000;stroke:#ff0000;" x="475.88961" xlink:href="#m988a42f191" y="300.421632"/>
    </g>
   </g>
   <g id="line2d_37">
    <g clip-path="url(#p9d0cb50e5e)">
     <use style="fill:#ff0000;stroke:#ff0000;" x="484.948052" xlink:href="#m988a42f191" y="301.073203"/>
    </g>
   </g>
   <g id="line2d_38">
    <g clip-path="url(#p9d0cb50e5e)">
     <use style="fill:#ff0000;stroke:#ff0000;" x="494.006494" xlink:href="#m988a42f191" y="302.03643"/>
    </g>
   </g>
   <g id="line2d_39">
    <g clip-path="url(#p9d0cb50e5e)">
     <use style="fill:#ff0000;stroke:#ff0000;" x="503.064935" xlink:href="#m988a42f191" y="302.634052"/>
    </g>
   </g>
   <g id="line2d_40">
    <g clip-path="url(#p9d0cb50e5e)">
     <use style="fill:#ff0000;stroke:#ff0000;" x="512.123377" xlink:href="#m988a42f191" y="303.361352"/>
    </g>
   </g>
   <g id="line2d_41">
    <g clip-path="url(#p9d0cb50e5e)">
     <use style="fill:#ff0000;stroke:#ff0000;" x="521.181818" xlink:href="#m988a42f191" y="303.825242"/>
    </g>
   </g>
   <g id="line2d_42">
    <g clip-path="url(#p9d0cb50e5e)">
     <use style="fill:#ff0000;stroke:#ff0000;" x="530.24026" xlink:href="#m988a42f191" y="304.31451"/>
    </g>
   </g>
   <g id="line2d_43">
    <g clip-path="url(#p9d0cb50e5e)">
     <use style="fill:#ff0000;stroke:#ff0000;" x="539.298701" xlink:href="#m988a42f191" y="304.63984"/>
    </g>
   </g>
   <g id="line2d_44">
    <g clip-path="url(#p9d0cb50e5e)">
     <use style="fill:#ff0000;stroke:#ff0000;" x="548.357143" xlink:href="#m988a42f191" y="304.945052"/>
    </g>
   </g>
   <g id="line2d_45">
    <g clip-path="url(#p9d0cb50e5e)">
     <use style="fill:#ff0000;stroke:#ff0000;" x="557.415584" xlink:href="#m988a42f191" y="305.156501"/>
    </g>
   </g>
   <g id="line2d_46">
    <g clip-path="url(#p9d0cb50e5e)">
     <use style="fill:#ff0000;stroke:#ff0000;" x="566.474026" xlink:href="#m988a42f191" y="305.33563"/>
    </g>
   </g>
   <g id="line2d_47">
    <g clip-path="url(#p9d0cb50e5e)">
     <use style="fill:#ff0000;stroke:#ff0000;" x="575.532468" xlink:href="#m988a42f191" y="305.464382"/>
    </g>
   </g>
   <g id="patch_8">
    <path d="M 394.363636 315 
L 394.363636 43.2 
" style="fill:none;stroke:#000000;stroke-linecap:square;stroke-linejoin:miter;stroke-width:0.8;"/>
   </g>
   <g id="patch_9">
    <path d="M 648 315 
L 648 43.2 
" style="fill:none;stroke:#000000;stroke-linecap:square;stroke-linejoin:miter;stroke-width:0.8;"/>
   </g>
   <g id="patch_10">
    <path d="M 394.363636 315 
L 648 315 
" style="fill:none;stroke:#000000;stroke-linecap:square;stroke-linejoin:miter;stroke-width:0.8;"/>
   </g>
   <g id="patch_11">
    <path d="M 394.363636 43.2 
L 648 43.2 
" style="fill:none;stroke:#000000;stroke-linecap:square;stroke-linejoin:miter;stroke-width:0.8;"/>
   </g>
   <g id="text_25">
    <!-- Sum of Squared Errors -->
    <defs>
     <path d="M 53.515625 70.515625 
L 53.515625 60.890625 
Q 47.90625 63.578125 42.921875 64.890625 
Q 37.9375 66.21875 33.296875 66.21875 
Q 25.25 66.21875 20.875 63.09375 
Q 16.5 59.96875 16.5 54.203125 
Q 16.5 49.359375 19.40625 46.890625 
Q 22.3125 44.4375 30.421875 42.921875 
L 36.375 41.703125 
Q 47.40625 39.59375 52.65625 34.296875 
Q 57.90625 29 57.90625 20.125 
Q 57.90625 9.515625 50.796875 4.046875 
Q 43.703125 -1.421875 29.984375 -1.421875 
Q 24.8125 -1.421875 18.96875 -0.25 
Q 13.140625 0.921875 6.890625 3.21875 
L 6.890625 13.375 
Q 12.890625 10.015625 18.65625 8.296875 
Q 24.421875 6.59375 29.984375 6.59375 
Q 38.421875 6.59375 43.015625 9.90625 
Q 47.609375 13.234375 47.609375 19.390625 
Q 47.609375 24.75 44.3125 27.78125 
Q 41.015625 30.8125 33.5 32.328125 
L 27.484375 33.5 
Q 16.453125 35.6875 11.515625 40.375 
Q 6.59375 45.0625 6.59375 53.421875 
Q 6.59375 63.09375 13.40625 68.65625 
Q 20.21875 74.21875 32.171875 74.21875 
Q 37.3125 74.21875 42.625 73.28125 
Q 47.953125 72.359375 53.515625 70.515625 
z
" id="DejaVuSans-53"/>
     <path d="M 30.609375 48.390625 
Q 23.390625 48.390625 19.1875 42.75 
Q 14.984375 37.109375 14.984375 27.296875 
Q 14.984375 17.484375 19.15625 11.84375 
Q 23.34375 6.203125 30.609375 6.203125 
Q 37.796875 6.203125 41.984375 11.859375 
Q 46.1875 17.53125 46.1875 27.296875 
Q 46.1875 37.015625 41.984375 42.703125 
Q 37.796875 48.390625 30.609375 48.390625 
z
M 30.609375 56 
Q 42.328125 56 49.015625 48.375 
Q 55.71875 40.765625 55.71875 27.296875 
Q 55.71875 13.875 49.015625 6.21875 
Q 42.328125 -1.421875 30.609375 -1.421875 
Q 18.84375 -1.421875 12.171875 6.21875 
Q 5.515625 13.875 5.515625 27.296875 
Q 5.515625 40.765625 12.171875 48.375 
Q 18.84375 56 30.609375 56 
z
" id="DejaVuSans-6f"/>
     <path d="M 37.109375 75.984375 
L 37.109375 68.5 
L 28.515625 68.5 
Q 23.6875 68.5 21.796875 66.546875 
Q 19.921875 64.59375 19.921875 59.515625 
L 19.921875 54.6875 
L 34.71875 54.6875 
L 34.71875 47.703125 
L 19.921875 47.703125 
L 19.921875 0 
L 10.890625 0 
L 10.890625 47.703125 
L 2.296875 47.703125 
L 2.296875 54.6875 
L 10.890625 54.6875 
L 10.890625 58.5 
Q 10.890625 67.625 15.140625 71.796875 
Q 19.390625 75.984375 28.609375 75.984375 
z
" id="DejaVuSans-66"/>
     <path d="M 14.796875 27.296875 
Q 14.796875 17.390625 18.875 11.75 
Q 22.953125 6.109375 30.078125 6.109375 
Q 37.203125 6.109375 41.296875 11.75 
Q 45.40625 17.390625 45.40625 27.296875 
Q 45.40625 37.203125 41.296875 42.84375 
Q 37.203125 48.484375 30.078125 48.484375 
Q 22.953125 48.484375 18.875 42.84375 
Q 14.796875 37.203125 14.796875 27.296875 
z
M 45.40625 8.203125 
Q 42.578125 3.328125 38.25 0.953125 
Q 33.9375 -1.421875 27.875 -1.421875 
Q 17.96875 -1.421875 11.734375 6.484375 
Q 5.515625 14.40625 5.515625 27.296875 
Q 5.515625 40.1875 11.734375 48.09375 
Q 17.96875 56 27.875 56 
Q 33.9375 56 38.25 53.625 
Q 42.578125 51.265625 45.40625 46.390625 
L 45.40625 54.6875 
L 54.390625 54.6875 
L 54.390625 -20.796875 
L 45.40625 -20.796875 
z
" id="DejaVuSans-71"/>
     <path d="M 41.109375 46.296875 
Q 39.59375 47.171875 37.8125 47.578125 
Q 36.03125 48 33.890625 48 
Q 26.265625 48 22.1875 43.046875 
Q 18.109375 38.09375 18.109375 28.8125 
L 18.109375 0 
L 9.078125 0 
L 9.078125 54.6875 
L 18.109375 54.6875 
L 18.109375 46.1875 
Q 20.953125 51.171875 25.484375 53.578125 
Q 30.03125 56 36.53125 56 
Q 37.453125 56 38.578125 55.875 
Q 39.703125 55.765625 41.0625 55.515625 
z
" id="DejaVuSans-72"/>
     <path d="M 56.203125 29.59375 
L 56.203125 25.203125 
L 14.890625 25.203125 
Q 15.484375 15.921875 20.484375 11.0625 
Q 25.484375 6.203125 34.421875 6.203125 
Q 39.59375 6.203125 44.453125 7.46875 
Q 49.3125 8.734375 54.109375 11.28125 
L 54.109375 2.78125 
Q 49.265625 0.734375 44.1875 -0.34375 
Q 39.109375 -1.421875 33.890625 -1.421875 
Q 20.796875 -1.421875 13.15625 6.1875 
Q 5.515625 13.8125 5.515625 26.8125 
Q 5.515625 40.234375 12.765625 48.109375 
Q 20.015625 56 32.328125 56 
Q 43.359375 56 49.78125 48.890625 
Q 56.203125 41.796875 56.203125 29.59375 
z
M 47.21875 32.234375 
Q 47.125 39.59375 43.09375 43.984375 
Q 39.0625 48.390625 32.421875 48.390625 
Q 24.90625 48.390625 20.390625 44.140625 
Q 15.875 39.890625 15.1875 32.171875 
z
" id="DejaVuSans-65"/>
     <path d="M 45.40625 46.390625 
L 45.40625 75.984375 
L 54.390625 75.984375 
L 54.390625 0 
L 45.40625 0 
L 45.40625 8.203125 
Q 42.578125 3.328125 38.25 0.953125 
Q 33.9375 -1.421875 27.875 -1.421875 
Q 17.96875 -1.421875 11.734375 6.484375 
Q 5.515625 14.40625 5.515625 27.296875 
Q 5.515625 40.1875 11.734375 48.09375 
Q 17.96875 56 27.875 56 
Q 33.9375 56 38.25 53.625 
Q 42.578125 51.265625 45.40625 46.390625 
z
M 14.796875 27.296875 
Q 14.796875 17.390625 18.875 11.75 
Q 22.953125 6.109375 30.078125 6.109375 
Q 37.203125 6.109375 41.296875 11.75 
Q 45.40625 17.390625 45.40625 27.296875 
Q 45.40625 37.203125 41.296875 42.84375 
Q 37.203125 48.484375 30.078125 48.484375 
Q 22.953125 48.484375 18.875 42.84375 
Q 14.796875 37.203125 14.796875 27.296875 
z
" id="DejaVuSans-64"/>
     <path d="M 9.8125 72.90625 
L 55.90625 72.90625 
L 55.90625 64.59375 
L 19.671875 64.59375 
L 19.671875 43.015625 
L 54.390625 43.015625 
L 54.390625 34.71875 
L 19.671875 34.71875 
L 19.671875 8.296875 
L 56.78125 8.296875 
L 56.78125 0 
L 9.8125 0 
z
" id="DejaVuSans-45"/>
    </defs>
    <g transform="translate(407.834943 37.2)scale(0.2 -0.2)">
     <use xlink:href="#DejaVuSans-53"/>
     <use x="63.476562" xlink:href="#DejaVuSans-75"/>
     <use x="126.855469" xlink:href="#DejaVuSans-6d"/>
     <use x="224.267578" xlink:href="#DejaVuSans-20"/>
     <use x="256.054688" xlink:href="#DejaVuSans-6f"/>
     <use x="317.236328" xlink:href="#DejaVuSans-66"/>
     <use x="352.441406" xlink:href="#DejaVuSans-20"/>
     <use x="384.228516" xlink:href="#DejaVuSans-53"/>
     <use x="447.705078" xlink:href="#DejaVuSans-71"/>
     <use x="511.181641" xlink:href="#DejaVuSans-75"/>
     <use x="574.560547" xlink:href="#DejaVuSans-61"/>
     <use x="635.839844" xlink:href="#DejaVuSans-72"/>
     <use x="676.921875" xlink:href="#DejaVuSans-65"/>
     <use x="738.445312" xlink:href="#DejaVuSans-64"/>
     <use x="801.921875" xlink:href="#DejaVuSans-20"/>
     <use x="833.708984" xlink:href="#DejaVuSans-45"/>
     <use x="896.892578" xlink:href="#DejaVuSans-72"/>
     <use x="937.990234" xlink:href="#DejaVuSans-72"/>
     <use x="979.072266" xlink:href="#DejaVuSans-6f"/>
     <use x="1040.253906" xlink:href="#DejaVuSans-72"/>
     <use x="1081.367188" xlink:href="#DejaVuSans-73"/>
    </g>
   </g>
  </g>
 </g>
 <defs>
  <clipPath id="p80b9938773">
   <rect height="271.8" width="253.636364" x="90" y="43.2"/>
  </clipPath>
  <clipPath id="p9d0cb50e5e">
   <rect height="271.8" width="253.636364" x="394.363636" y="43.2"/>
  </clipPath>
 </defs>
</svg>
