<?xml version="1.0" encoding="utf-8" standalone="no"?>
<!DOCTYPE svg PUBLIC "-//W3C//DTD SVG 1.1//EN"
  "http://www.w3.org/Graphics/SVG/1.1/DTD/svg11.dtd">
<!-- Created with matplotlib (http://matplotlib.org/) -->
<svg height="360pt" version="1.1" viewBox="0 0 360 360" width="360pt" xmlns="http://www.w3.org/2000/svg" xmlns:xlink="http://www.w3.org/1999/xlink">
 <defs>
  <style type="text/css">
*{stroke-linecap:butt;stroke-linejoin:round;}
  </style>
 </defs>
 <g id="figure_1">
  <g id="patch_1">
   <path d="M 0 360 
L 360 360 
L 360 0 
L 0 0 
z
" style="fill:#ffffff;"/>
  </g>
  <g id="axes_1">
   <g id="patch_2">
    <path d="M 45 315 
L 324 315 
L 324 43.2 
L 45 43.2 
z
" style="fill:#ffffff;"/>
   </g>
   <g id="matplotlib.axis_1">
    <g id="xtick_1">
     <g id="line2d_1">
      <defs>
       <path d="M 0 0 
L 0 3.5 
" id="ma45db7ed40" style="stroke:#000000;stroke-width:0.8;"/>
      </defs>
      <g>
       <use style="stroke:#000000;stroke-width:0.8;" x="47.575547" xlink:href="#ma45db7ed40" y="315"/>
      </g>
     </g>
     <g id="text_1">
      <!-- −6 -->
      <defs>
       <path d="M 10.59375 35.5 
L 73.1875 35.5 
L 73.1875 27.203125 
L 10.59375 27.203125 
z
" id="DejaVuSans-2212"/>
       <path d="M 33.015625 40.375 
Q 26.375 40.375 22.484375 35.828125 
Q 18.609375 31.296875 18.609375 23.390625 
Q 18.609375 15.53125 22.484375 10.953125 
Q 26.375 6.390625 33.015625 6.390625 
Q 39.65625 6.390625 43.53125 10.953125 
Q 47.40625 15.53125 47.40625 23.390625 
Q 47.40625 31.296875 43.53125 35.828125 
Q 39.65625 40.375 33.015625 40.375 
z
M 52.59375 71.296875 
L 52.59375 62.3125 
Q 48.875 64.0625 45.09375 64.984375 
Q 41.3125 65.921875 37.59375 65.921875 
Q 27.828125 65.921875 22.671875 59.328125 
Q 17.53125 52.734375 16.796875 39.40625 
Q 19.671875 43.65625 24.015625 45.921875 
Q 28.375 48.1875 33.59375 48.1875 
Q 44.578125 48.1875 50.953125 41.515625 
Q 57.328125 34.859375 57.328125 23.390625 
Q 57.328125 12.15625 50.6875 5.359375 
Q 44.046875 -1.421875 33.015625 -1.421875 
Q 20.359375 -1.421875 13.671875 8.265625 
Q 6.984375 17.96875 6.984375 36.375 
Q 6.984375 53.65625 15.1875 63.9375 
Q 23.390625 74.21875 37.203125 74.21875 
Q 40.921875 74.21875 44.703125 73.484375 
Q 48.484375 72.75 52.59375 71.296875 
z
" id="DejaVuSans-36"/>
      </defs>
      <g transform="translate(40.204453 329.598437)scale(0.1 -0.1)">
       <use xlink:href="#DejaVuSans-2212"/>
       <use x="83.789062" xlink:href="#DejaVuSans-36"/>
      </g>
     </g>
    </g>
    <g id="xtick_2">
     <g id="line2d_2">
      <g>
       <use style="stroke:#000000;stroke-width:0.8;" x="97.505382" xlink:href="#ma45db7ed40" y="315"/>
      </g>
     </g>
     <g id="text_2">
      <!-- −4 -->
      <defs>
       <path d="M 37.796875 64.3125 
L 12.890625 25.390625 
L 37.796875 25.390625 
z
M 35.203125 72.90625 
L 47.609375 72.90625 
L 47.609375 25.390625 
L 58.015625 25.390625 
L 58.015625 17.1875 
L 47.609375 17.1875 
L 47.609375 0 
L 37.796875 0 
L 37.796875 17.1875 
L 4.890625 17.1875 
L 4.890625 26.703125 
z
" id="DejaVuSans-34"/>
      </defs>
      <g transform="translate(90.134289 329.598437)scale(0.1 -0.1)">
       <use xlink:href="#DejaVuSans-2212"/>
       <use x="83.789062" xlink:href="#DejaVuSans-34"/>
      </g>
     </g>
    </g>
    <g id="xtick_3">
     <g id="line2d_3">
      <g>
       <use style="stroke:#000000;stroke-width:0.8;" x="147.435218" xlink:href="#ma45db7ed40" y="315"/>
      </g>
     </g>
     <g id="text_3">
      <!-- −2 -->
      <defs>
       <path d="M 19.1875 8.296875 
L 53.609375 8.296875 
L 53.609375 0 
L 7.328125 0 
L 7.328125 8.296875 
Q 12.9375 14.109375 22.625 23.890625 
Q 32.328125 33.6875 34.8125 36.53125 
Q 39.546875 41.84375 41.421875 45.53125 
Q 43.3125 49.21875 43.3125 52.78125 
Q 43.3125 58.59375 39.234375 62.25 
Q 35.15625 65.921875 28.609375 65.921875 
Q 23.96875 65.921875 18.8125 64.3125 
Q 13.671875 62.703125 7.8125 59.421875 
L 7.8125 69.390625 
Q 13.765625 71.78125 18.9375 73 
Q 24.125 74.21875 28.421875 74.21875 
Q 39.75 74.21875 46.484375 68.546875 
Q 53.21875 62.890625 53.21875 53.421875 
Q 53.21875 48.921875 51.53125 44.890625 
Q 49.859375 40.875 45.40625 35.40625 
Q 44.1875 33.984375 37.640625 27.21875 
Q 31.109375 20.453125 19.1875 8.296875 
z
" id="DejaVuSans-32"/>
      </defs>
      <g transform="translate(140.064124 329.598437)scale(0.1 -0.1)">
       <use xlink:href="#DejaVuSans-2212"/>
       <use x="83.789062" xlink:href="#DejaVuSans-32"/>
      </g>
     </g>
    </g>
    <g id="xtick_4">
     <g id="line2d_4">
      <g>
       <use style="stroke:#000000;stroke-width:0.8;" x="197.365053" xlink:href="#ma45db7ed40" y="315"/>
      </g>
     </g>
     <g id="text_4">
      <!-- 0 -->
      <defs>
       <path d="M 31.78125 66.40625 
Q 24.171875 66.40625 20.328125 58.90625 
Q 16.5 51.421875 16.5 36.375 
Q 16.5 21.390625 20.328125 13.890625 
Q 24.171875 6.390625 31.78125 6.390625 
Q 39.453125 6.390625 43.28125 13.890625 
Q 47.125 21.390625 47.125 36.375 
Q 47.125 51.421875 43.28125 58.90625 
Q 39.453125 66.40625 31.78125 66.40625 
z
M 31.78125 74.21875 
Q 44.046875 74.21875 50.515625 64.515625 
Q 56.984375 54.828125 56.984375 36.375 
Q 56.984375 17.96875 50.515625 8.265625 
Q 44.046875 -1.421875 31.78125 -1.421875 
Q 19.53125 -1.421875 13.0625 8.265625 
Q 6.59375 17.96875 6.59375 36.375 
Q 6.59375 54.828125 13.0625 64.515625 
Q 19.53125 74.21875 31.78125 74.21875 
z
" id="DejaVuSans-30"/>
      </defs>
      <g transform="translate(194.183803 329.598437)scale(0.1 -0.1)">
       <use xlink:href="#DejaVuSans-30"/>
      </g>
     </g>
    </g>
    <g id="xtick_5">
     <g id="line2d_5">
      <g>
       <use style="stroke:#000000;stroke-width:0.8;" x="247.294889" xlink:href="#ma45db7ed40" y="315"/>
      </g>
     </g>
     <g id="text_5">
      <!-- 2 -->
      <g transform="translate(244.113639 329.598437)scale(0.1 -0.1)">
       <use xlink:href="#DejaVuSans-32"/>
      </g>
     </g>
    </g>
    <g id="xtick_6">
     <g id="line2d_6">
      <g>
       <use style="stroke:#000000;stroke-width:0.8;" x="297.224724" xlink:href="#ma45db7ed40" y="315"/>
      </g>
     </g>
     <g id="text_6">
      <!-- 4 -->
      <g transform="translate(294.043474 329.598437)scale(0.1 -0.1)">
       <use xlink:href="#DejaVuSans-34"/>
      </g>
     </g>
    </g>
    <g id="text_7">
     <!-- $y_1$ -->
     <defs>
      <path d="M 24.8125 -5.078125 
Q 18.5625 -15.578125 14.625 -18.1875 
Q 10.6875 -20.796875 4.59375 -20.796875 
L -2.484375 -20.796875 
L -0.984375 -13.28125 
L 4.203125 -13.28125 
Q 7.953125 -13.28125 10.59375 -11.234375 
Q 13.234375 -9.1875 16.5 -3.21875 
L 19.28125 2 
L 7.171875 54.6875 
L 16.703125 54.6875 
L 25.78125 12.796875 
L 50.875 54.6875 
L 60.296875 54.6875 
z
" id="DejaVuSans-Oblique-79"/>
      <path d="M 12.40625 8.296875 
L 28.515625 8.296875 
L 28.515625 63.921875 
L 10.984375 60.40625 
L 10.984375 69.390625 
L 28.421875 72.90625 
L 38.28125 72.90625 
L 38.28125 8.296875 
L 54.390625 8.296875 
L 54.390625 0 
L 12.40625 0 
z
" id="DejaVuSans-31"/>
     </defs>
     <g transform="translate(173.8 350.834375)scale(0.2 -0.2)">
      <use transform="translate(0 0.3125)" xlink:href="#DejaVuSans-Oblique-79"/>
      <use transform="translate(59.179688 -16.09375)scale(0.7)" xlink:href="#DejaVuSans-31"/>
     </g>
    </g>
   </g>
   <g id="matplotlib.axis_2">
    <g id="ytick_1">
     <g id="line2d_7">
      <defs>
       <path d="M 0 0 
L -3.5 0 
" id="m1e094acb2d" style="stroke:#000000;stroke-width:0.8;"/>
      </defs>
      <g>
       <use style="stroke:#000000;stroke-width:0.8;" x="45" xlink:href="#m1e094acb2d" y="268.993359"/>
      </g>
     </g>
     <g id="text_8">
      <!-- −4 -->
      <g transform="translate(23.257812 272.792577)scale(0.1 -0.1)">
       <use xlink:href="#DejaVuSans-2212"/>
       <use x="83.789062" xlink:href="#DejaVuSans-34"/>
      </g>
     </g>
    </g>
    <g id="ytick_2">
     <g id="line2d_8">
      <g>
       <use style="stroke:#000000;stroke-width:0.8;" x="45" xlink:href="#m1e094acb2d" y="216.175331"/>
      </g>
     </g>
     <g id="text_9">
      <!-- −2 -->
      <g transform="translate(23.257812 219.97455)scale(0.1 -0.1)">
       <use xlink:href="#DejaVuSans-2212"/>
       <use x="83.789062" xlink:href="#DejaVuSans-32"/>
      </g>
     </g>
    </g>
    <g id="ytick_3">
     <g id="line2d_9">
      <g>
       <use style="stroke:#000000;stroke-width:0.8;" x="45" xlink:href="#m1e094acb2d" y="163.357304"/>
      </g>
     </g>
     <g id="text_10">
      <!-- 0 -->
      <g transform="translate(31.6375 167.156523)scale(0.1 -0.1)">
       <use xlink:href="#DejaVuSans-30"/>
      </g>
     </g>
    </g>
    <g id="ytick_4">
     <g id="line2d_10">
      <g>
       <use style="stroke:#000000;stroke-width:0.8;" x="45" xlink:href="#m1e094acb2d" y="110.539277"/>
      </g>
     </g>
     <g id="text_11">
      <!-- 2 -->
      <g transform="translate(31.6375 114.338496)scale(0.1 -0.1)">
       <use xlink:href="#DejaVuSans-32"/>
      </g>
     </g>
    </g>
    <g id="ytick_5">
     <g id="line2d_11">
      <g>
       <use style="stroke:#000000;stroke-width:0.8;" x="45" xlink:href="#m1e094acb2d" y="57.72125"/>
      </g>
     </g>
     <g id="text_12">
      <!-- 4 -->
      <g transform="translate(31.6375 61.520469)scale(0.1 -0.1)">
       <use xlink:href="#DejaVuSans-34"/>
      </g>
     </g>
    </g>
    <g id="text_13">
     <!-- $y_2$ -->
     <g transform="translate(15.057813 189.8)rotate(-90)scale(0.2 -0.2)">
      <use transform="translate(0 0.3125)" xlink:href="#DejaVuSans-Oblique-79"/>
      <use transform="translate(59.179688 -16.09375)scale(0.7)" xlink:href="#DejaVuSans-32"/>
     </g>
    </g>
   </g>
   <g id="line2d_12">
    <defs>
     <path d="M -5 5 
L 5 -5 
M -5 -5 
L 5 5 
" id="m56762672ab" style="stroke:#ff0000;"/>
    </defs>
    <g clip-path="url(#pf1c80b7370)">
     <use style="fill:#ff0000;stroke:#ff0000;" x="153.497396" xlink:href="#m56762672ab" y="272.160494"/>
     <use style="fill:#ff0000;stroke:#ff0000;" x="150.294812" xlink:href="#m56762672ab" y="245.206927"/>
     <use style="fill:#ff0000;stroke:#ff0000;" x="172.237272" xlink:href="#m56762672ab" y="204.042165"/>
     <use style="fill:#ff0000;stroke:#ff0000;" x="167.842403" xlink:href="#m56762672ab" y="219.746893"/>
     <use style="fill:#ff0000;stroke:#ff0000;" x="156.291417" xlink:href="#m56762672ab" y="256.79677"/>
     <use style="fill:#ff0000;stroke:#ff0000;" x="144.663118" xlink:href="#m56762672ab" y="243.56928"/>
     <use style="fill:#ff0000;stroke:#ff0000;" x="170.243476" xlink:href="#m56762672ab" y="244.495962"/>
     <use style="fill:#ff0000;stroke:#ff0000;" x="160.540079" xlink:href="#m56762672ab" y="258.619033"/>
     <use style="fill:#ff0000;stroke:#ff0000;" x="114.839065" xlink:href="#m56762672ab" y="302.645455"/>
     <use style="fill:#ff0000;stroke:#ff0000;" x="130.494954" xlink:href="#m56762672ab" y="260.528359"/>
     <use style="fill:#ff0000;stroke:#ff0000;" x="133.338933" xlink:href="#m56762672ab" y="257.518917"/>
     <use style="fill:#ff0000;stroke:#ff0000;" x="159.315459" xlink:href="#m56762672ab" y="233.643294"/>
     <use style="fill:#ff0000;stroke:#ff0000;" x="228.028954" xlink:href="#m56762672ab" y="265.813362"/>
     <use style="fill:#ff0000;stroke:#ff0000;" x="268.866749" xlink:href="#m56762672ab" y="263.504776"/>
     <use style="fill:#ff0000;stroke:#ff0000;" x="234.459259" xlink:href="#m56762672ab" y="251.909288"/>
     <use style="fill:#ff0000;stroke:#ff0000;" x="273.308454" xlink:href="#m56762672ab" y="271.108524"/>
     <use style="fill:#ff0000;stroke:#ff0000;" x="238.465366" xlink:href="#m56762672ab" y="257.661172"/>
     <use style="fill:#ff0000;stroke:#ff0000;" x="231.763402" xlink:href="#m56762672ab" y="238.616453"/>
     <use style="fill:#ff0000;stroke:#ff0000;" x="234.918425" xlink:href="#m56762672ab" y="282.979921"/>
    </g>
   </g>
   <g id="line2d_13">
    <defs>
     <path d="M 0 5 
C 1.326016 5 2.597899 4.473168 3.535534 3.535534 
C 4.473168 2.597899 5 1.326016 5 0 
C 5 -1.326016 4.473168 -2.597899 3.535534 -3.535534 
C 2.597899 -4.473168 1.326016 -5 0 -5 
C -1.326016 -5 -2.597899 -4.473168 -3.535534 -3.535534 
C -4.473168 -2.597899 -5 -1.326016 -5 0 
C -5 1.326016 -4.473168 2.597899 -3.535534 3.535534 
C -2.597899 4.473168 -1.326016 5 0 5 
z
" id="m1907970b2e" style="stroke:#00ff00;"/>
    </defs>
    <g clip-path="url(#pf1c80b7370)">
     <use style="fill:#00ff00;stroke:#00ff00;" x="256.391518" xlink:href="#m1907970b2e" y="114.707226"/>
     <use style="fill:#00ff00;stroke:#00ff00;" x="262.562232" xlink:href="#m1907970b2e" y="92.340909"/>
     <use style="fill:#00ff00;stroke:#00ff00;" x="228.273801" xlink:href="#m1907970b2e" y="126.654289"/>
     <use style="fill:#00ff00;stroke:#00ff00;" x="297.385476" xlink:href="#m1907970b2e" y="115.555524"/>
     <use style="fill:#00ff00;stroke:#00ff00;" x="269.866673" xlink:href="#m1907970b2e" y="115.808867"/>
     <use style="fill:#00ff00;stroke:#00ff00;" x="271.754266" xlink:href="#m1907970b2e" y="91.366527"/>
     <use style="fill:#00ff00;stroke:#00ff00;" x="224.560506" xlink:href="#m1907970b2e" y="72.543344"/>
     <use style="fill:#00ff00;stroke:#00ff00;" x="218.990649" xlink:href="#m1907970b2e" y="100.517291"/>
     <use style="fill:#00ff00;stroke:#00ff00;" x="302.960995" xlink:href="#m1907970b2e" y="63.103098"/>
     <use style="fill:#00ff00;stroke:#00ff00;" x="285.159702" xlink:href="#m1907970b2e" y="84.924332"/>
     <use style="fill:#00ff00;stroke:#00ff00;" x="251.937029" xlink:href="#m1907970b2e" y="156.770231"/>
     <use style="fill:#00ff00;stroke:#00ff00;" x="242.72966" xlink:href="#m1907970b2e" y="142.773176"/>
     <use style="fill:#00ff00;stroke:#00ff00;" x="271.98512" xlink:href="#m1907970b2e" y="99.69456"/>
     <use style="fill:#00ff00;stroke:#00ff00;" x="292.291691" xlink:href="#m1907970b2e" y="108.401151"/>
     <use style="fill:#00ff00;stroke:#00ff00;" x="306.764901" xlink:href="#m1907970b2e" y="70.288913"/>
     <use style="fill:#00ff00;stroke:#00ff00;" x="232.831296" xlink:href="#m1907970b2e" y="144.736189"/>
     <use style="fill:#00ff00;stroke:#00ff00;" x="274.556176" xlink:href="#m1907970b2e" y="142.358848"/>
     <use style="fill:#00ff00;stroke:#00ff00;" x="251.477349" xlink:href="#m1907970b2e" y="117.142771"/>
     <use style="fill:#00ff00;stroke:#00ff00;" x="237.36452" xlink:href="#m1907970b2e" y="73.016656"/>
     <use style="fill:#00ff00;stroke:#00ff00;" x="294.195552" xlink:href="#m1907970b2e" y="57.018452"/>
     <use style="fill:#00ff00;stroke:#00ff00;" x="263.732631" xlink:href="#m1907970b2e" y="115.214109"/>
     <use style="fill:#00ff00;stroke:#00ff00;" x="240.922663" xlink:href="#m1907970b2e" y="55.554545"/>
     <use style="fill:#00ff00;stroke:#00ff00;" x="272.378697" xlink:href="#m1907970b2e" y="73.751617"/>
     <use style="fill:#00ff00;stroke:#00ff00;" x="228.20114" xlink:href="#m1907970b2e" y="80.501394"/>
     <use style="fill:#00ff00;stroke:#00ff00;" x="254.487814" xlink:href="#m1907970b2e" y="100.323372"/>
     <use style="fill:#00ff00;stroke:#00ff00;" x="241.665358" xlink:href="#m1907970b2e" y="149.513309"/>
     <use style="fill:#00ff00;stroke:#00ff00;" x="281.017012" xlink:href="#m1907970b2e" y="130.71324"/>
     <use style="fill:#00ff00;stroke:#00ff00;" x="241.77773" xlink:href="#m1907970b2e" y="72.962801"/>
     <use style="fill:#00ff00;stroke:#00ff00;" x="264.265117" xlink:href="#m1907970b2e" y="99.716828"/>
     <use style="fill:#00ff00;stroke:#00ff00;" x="249.7249" xlink:href="#m1907970b2e" y="98.173412"/>
     <use style="fill:#00ff00;stroke:#00ff00;" x="310.707831" xlink:href="#m1907970b2e" y="239.930711"/>
     <use style="fill:#00ff00;stroke:#00ff00;" x="268.487193" xlink:href="#m1907970b2e" y="227.954319"/>
     <use style="fill:#00ff00;stroke:#00ff00;" x="286.388802" xlink:href="#m1907970b2e" y="218.975745"/>
     <use style="fill:#00ff00;stroke:#00ff00;" x="232.439519" xlink:href="#m1907970b2e" y="215.949211"/>
     <use style="fill:#00ff00;stroke:#00ff00;" x="276.884083" xlink:href="#m1907970b2e" y="228.419417"/>
     <use style="fill:#00ff00;stroke:#00ff00;" x="230.10918" xlink:href="#m1907970b2e" y="217.552587"/>
     <use style="fill:#00ff00;stroke:#00ff00;" x="267.44057" xlink:href="#m1907970b2e" y="236.390837"/>
     <use style="fill:#00ff00;stroke:#00ff00;" x="244.091851" xlink:href="#m1907970b2e" y="223.340698"/>
     <use style="fill:#00ff00;stroke:#00ff00;" x="250.180721" xlink:href="#m1907970b2e" y="233.530085"/>
     <use style="fill:#00ff00;stroke:#00ff00;" x="271.271051" xlink:href="#m1907970b2e" y="230.71639"/>
     <use style="fill:#00ff00;stroke:#00ff00;" x="277.828414" xlink:href="#m1907970b2e" y="215.445925"/>
     <use style="fill:#00ff00;stroke:#00ff00;" x="254.173443" xlink:href="#m1907970b2e" y="243.426984"/>
     <use style="fill:#00ff00;stroke:#00ff00;" x="311.318182" xlink:href="#m1907970b2e" y="207.089082"/>
     <use style="fill:#00ff00;stroke:#00ff00;" x="269.167577" xlink:href="#m1907970b2e" y="190.167636"/>
     <use style="fill:#00ff00;stroke:#00ff00;" x="243.477199" xlink:href="#m1907970b2e" y="196.691367"/>
     <use style="fill:#00ff00;stroke:#00ff00;" x="290.171476" xlink:href="#m1907970b2e" y="190.465906"/>
     <use style="fill:#00ff00;stroke:#00ff00;" x="244.840659" xlink:href="#m1907970b2e" y="218.66452"/>
     <use style="fill:#00ff00;stroke:#00ff00;" x="272.374001" xlink:href="#m1907970b2e" y="258.360993"/>
     <use style="fill:#00ff00;stroke:#00ff00;" x="280.425614" xlink:href="#m1907970b2e" y="253.455935"/>
     <use style="fill:#00ff00;stroke:#00ff00;" x="283.034437" xlink:href="#m1907970b2e" y="219.489213"/>
     <use style="fill:#00ff00;stroke:#00ff00;" x="250.134903" xlink:href="#m1907970b2e" y="217.067257"/>
     <use style="fill:#00ff00;stroke:#00ff00;" x="267.127705" xlink:href="#m1907970b2e" y="204.261666"/>
     <use style="fill:#00ff00;stroke:#00ff00;" x="224.611513" xlink:href="#m1907970b2e" y="205.956265"/>
    </g>
   </g>
   <g id="line2d_14">
    <defs>
     <path d="M -5 0 
L 5 0 
M 0 5 
L 0 -5 
" id="m633854d9d7" style="stroke:#0000ff;"/>
    </defs>
    <g clip-path="url(#pf1c80b7370)">
     <use style="fill:#0000ff;stroke:#0000ff;" x="57.681818" xlink:href="#m633854d9d7" y="220.150046"/>
     <use style="fill:#0000ff;stroke:#0000ff;" x="110.439708" xlink:href="#m633854d9d7" y="196.803084"/>
     <use style="fill:#0000ff;stroke:#0000ff;" x="92.686701" xlink:href="#m633854d9d7" y="202.191169"/>
     <use style="fill:#0000ff;stroke:#0000ff;" x="127.173634" xlink:href="#m633854d9d7" y="202.89869"/>
     <use style="fill:#0000ff;stroke:#0000ff;" x="79.499548" xlink:href="#m633854d9d7" y="227.173143"/>
     <use style="fill:#0000ff;stroke:#0000ff;" x="151.226622" xlink:href="#m633854d9d7" y="194.161846"/>
     <use style="fill:#0000ff;stroke:#0000ff;" x="125.604602" xlink:href="#m633854d9d7" y="230.075816"/>
     <use style="fill:#0000ff;stroke:#0000ff;" x="138.747653" xlink:href="#m633854d9d7" y="224.815426"/>
     <use style="fill:#0000ff;stroke:#0000ff;" x="130.920947" xlink:href="#m633854d9d7" y="223.455623"/>
     <use style="fill:#0000ff;stroke:#0000ff;" x="133.084211" xlink:href="#m633854d9d7" y="202.975339"/>
     <use style="fill:#0000ff;stroke:#0000ff;" x="132.180114" xlink:href="#m633854d9d7" y="212.89566"/>
     <use style="fill:#0000ff;stroke:#0000ff;" x="144.620098" xlink:href="#m633854d9d7" y="180.881977"/>
     <use style="fill:#0000ff;stroke:#0000ff;" x="115.539779" xlink:href="#m633854d9d7" y="264.032653"/>
     <use style="fill:#0000ff;stroke:#0000ff;" x="151.0774" xlink:href="#m633854d9d7" y="210.79192"/>
     <use style="fill:#0000ff;stroke:#0000ff;" x="121.411246" xlink:href="#m633854d9d7" y="206.615635"/>
     <use style="fill:#0000ff;stroke:#0000ff;" x="138.874857" xlink:href="#m633854d9d7" y="223.355746"/>
     <use style="fill:#0000ff;stroke:#0000ff;" x="140.866442" xlink:href="#m633854d9d7" y="219.576361"/>
     <use style="fill:#0000ff;stroke:#0000ff;" x="129.663632" xlink:href="#m633854d9d7" y="219.25964"/>
    </g>
   </g>
   <g id="line2d_15">
    <defs>
     <path d="M 0 6 
C 1.591219 6 3.117479 5.367802 4.242641 4.242641 
C 5.367802 3.117479 6 1.591219 6 0 
C 6 -1.591219 5.367802 -3.117479 4.242641 -4.242641 
C 3.117479 -5.367802 1.591219 -6 0 -6 
C -1.591219 -6 -3.117479 -5.367802 -4.242641 -4.242641 
C -5.367802 -3.117479 -6 -1.591219 -6 0 
C -6 1.591219 -5.367802 3.117479 -4.242641 4.242641 
C -3.117479 5.367802 -1.591219 6 0 6 
z
" id="m51a8af4aa8" style="stroke:#000000;"/>
    </defs>
    <g clip-path="url(#pf1c80b7370)">
     <use style="stroke:#000000;" x="172.042976" xlink:href="#m51a8af4aa8" y="253.332578"/>
     <use style="stroke:#000000;" x="262.928605" xlink:href="#m51a8af4aa8" y="158.073873"/>
     <use style="stroke:#000000;" x="123.86819" xlink:href="#m51a8af4aa8" y="211.651595"/>
    </g>
   </g>
   <g id="patch_3">
    <path d="M 45 315 
L 45 43.2 
" style="fill:none;stroke:#000000;stroke-linecap:square;stroke-linejoin:miter;stroke-width:0.8;"/>
   </g>
   <g id="patch_4">
    <path d="M 324 315 
L 324 43.2 
" style="fill:none;stroke:#000000;stroke-linecap:square;stroke-linejoin:miter;stroke-width:0.8;"/>
   </g>
   <g id="patch_5">
    <path d="M 45 315 
L 324 315 
" style="fill:none;stroke:#000000;stroke-linecap:square;stroke-linejoin:miter;stroke-width:0.8;"/>
   </g>
   <g id="patch_6">
    <path d="M 45 43.2 
L 324 43.2 
" style="fill:none;stroke:#000000;stroke-linecap:square;stroke-linejoin:miter;stroke-width:0.8;"/>
   </g>
   <g id="text_14">
    <!-- Iteration 5 -->
    <defs>
     <path d="M 9.8125 72.90625 
L 19.671875 72.90625 
L 19.671875 0 
L 9.8125 0 
z
" id="DejaVuSans-49"/>
     <path d="M 18.3125 70.21875 
L 18.3125 54.6875 
L 36.8125 54.6875 
L 36.8125 47.703125 
L 18.3125 47.703125 
L 18.3125 18.015625 
Q 18.3125 11.328125 20.140625 9.421875 
Q 21.96875 7.515625 27.59375 7.515625 
L 36.8125 7.515625 
L 36.8125 0 
L 27.59375 0 
Q 17.1875 0 13.234375 3.875 
Q 9.28125 7.765625 9.28125 18.015625 
L 9.28125 47.703125 
L 2.6875 47.703125 
L 2.6875 54.6875 
L 9.28125 54.6875 
L 9.28125 70.21875 
z
" id="DejaVuSans-74"/>
     <path d="M 56.203125 29.59375 
L 56.203125 25.203125 
L 14.890625 25.203125 
Q 15.484375 15.921875 20.484375 11.0625 
Q 25.484375 6.203125 34.421875 6.203125 
Q 39.59375 6.203125 44.453125 7.46875 
Q 49.3125 8.734375 54.109375 11.28125 
L 54.109375 2.78125 
Q 49.265625 0.734375 44.1875 -0.34375 
Q 39.109375 -1.421875 33.890625 -1.421875 
Q 20.796875 -1.421875 13.15625 6.1875 
Q 5.515625 13.8125 5.515625 26.8125 
Q 5.515625 40.234375 12.765625 48.109375 
Q 20.015625 56 32.328125 56 
Q 43.359375 56 49.78125 48.890625 
Q 56.203125 41.796875 56.203125 29.59375 
z
M 47.21875 32.234375 
Q 47.125 39.59375 43.09375 43.984375 
Q 39.0625 48.390625 32.421875 48.390625 
Q 24.90625 48.390625 20.390625 44.140625 
Q 15.875 39.890625 15.1875 32.171875 
z
" id="DejaVuSans-65"/>
     <path d="M 41.109375 46.296875 
Q 39.59375 47.171875 37.8125 47.578125 
Q 36.03125 48 33.890625 48 
Q 26.265625 48 22.1875 43.046875 
Q 18.109375 38.09375 18.109375 28.8125 
L 18.109375 0 
L 9.078125 0 
L 9.078125 54.6875 
L 18.109375 54.6875 
L 18.109375 46.1875 
Q 20.953125 51.171875 25.484375 53.578125 
Q 30.03125 56 36.53125 56 
Q 37.453125 56 38.578125 55.875 
Q 39.703125 55.765625 41.0625 55.515625 
z
" id="DejaVuSans-72"/>
     <path d="M 34.28125 27.484375 
Q 23.390625 27.484375 19.1875 25 
Q 14.984375 22.515625 14.984375 16.5 
Q 14.984375 11.71875 18.140625 8.90625 
Q 21.296875 6.109375 26.703125 6.109375 
Q 34.1875 6.109375 38.703125 11.40625 
Q 43.21875 16.703125 43.21875 25.484375 
L 43.21875 27.484375 
z
M 52.203125 31.203125 
L 52.203125 0 
L 43.21875 0 
L 43.21875 8.296875 
Q 40.140625 3.328125 35.546875 0.953125 
Q 30.953125 -1.421875 24.3125 -1.421875 
Q 15.921875 -1.421875 10.953125 3.296875 
Q 6 8.015625 6 15.921875 
Q 6 25.140625 12.171875 29.828125 
Q 18.359375 34.515625 30.609375 34.515625 
L 43.21875 34.515625 
L 43.21875 35.40625 
Q 43.21875 41.609375 39.140625 45 
Q 35.0625 48.390625 27.6875 48.390625 
Q 23 48.390625 18.546875 47.265625 
Q 14.109375 46.140625 10.015625 43.890625 
L 10.015625 52.203125 
Q 14.9375 54.109375 19.578125 55.046875 
Q 24.21875 56 28.609375 56 
Q 40.484375 56 46.34375 49.84375 
Q 52.203125 43.703125 52.203125 31.203125 
z
" id="DejaVuSans-61"/>
     <path d="M 9.421875 54.6875 
L 18.40625 54.6875 
L 18.40625 0 
L 9.421875 0 
z
M 9.421875 75.984375 
L 18.40625 75.984375 
L 18.40625 64.59375 
L 9.421875 64.59375 
z
" id="DejaVuSans-69"/>
     <path d="M 30.609375 48.390625 
Q 23.390625 48.390625 19.1875 42.75 
Q 14.984375 37.109375 14.984375 27.296875 
Q 14.984375 17.484375 19.15625 11.84375 
Q 23.34375 6.203125 30.609375 6.203125 
Q 37.796875 6.203125 41.984375 11.859375 
Q 46.1875 17.53125 46.1875 27.296875 
Q 46.1875 37.015625 41.984375 42.703125 
Q 37.796875 48.390625 30.609375 48.390625 
z
M 30.609375 56 
Q 42.328125 56 49.015625 48.375 
Q 55.71875 40.765625 55.71875 27.296875 
Q 55.71875 13.875 49.015625 6.21875 
Q 42.328125 -1.421875 30.609375 -1.421875 
Q 18.84375 -1.421875 12.171875 6.21875 
Q 5.515625 13.875 5.515625 27.296875 
Q 5.515625 40.765625 12.171875 48.375 
Q 18.84375 56 30.609375 56 
z
" id="DejaVuSans-6f"/>
     <path d="M 54.890625 33.015625 
L 54.890625 0 
L 45.90625 0 
L 45.90625 32.71875 
Q 45.90625 40.484375 42.875 44.328125 
Q 39.84375 48.1875 33.796875 48.1875 
Q 26.515625 48.1875 22.3125 43.546875 
Q 18.109375 38.921875 18.109375 30.90625 
L 18.109375 0 
L 9.078125 0 
L 9.078125 54.6875 
L 18.109375 54.6875 
L 18.109375 46.1875 
Q 21.34375 51.125 25.703125 53.5625 
Q 30.078125 56 35.796875 56 
Q 45.21875 56 50.046875 50.171875 
Q 54.890625 44.34375 54.890625 33.015625 
z
" id="DejaVuSans-6e"/>
     <path id="DejaVuSans-20"/>
     <path d="M 10.796875 72.90625 
L 49.515625 72.90625 
L 49.515625 64.59375 
L 19.828125 64.59375 
L 19.828125 46.734375 
Q 21.96875 47.46875 24.109375 47.828125 
Q 26.265625 48.1875 28.421875 48.1875 
Q 40.625 48.1875 47.75 41.5 
Q 54.890625 34.8125 54.890625 23.390625 
Q 54.890625 11.625 47.5625 5.09375 
Q 40.234375 -1.421875 26.90625 -1.421875 
Q 22.3125 -1.421875 17.546875 -0.640625 
Q 12.796875 0.140625 7.71875 1.703125 
L 7.71875 11.625 
Q 12.109375 9.234375 16.796875 8.0625 
Q 21.484375 6.890625 26.703125 6.890625 
Q 35.15625 6.890625 40.078125 11.328125 
Q 45.015625 15.765625 45.015625 23.390625 
Q 45.015625 31 40.078125 35.4375 
Q 35.15625 39.890625 26.703125 39.890625 
Q 22.75 39.890625 18.8125 39.015625 
Q 14.890625 38.140625 10.796875 36.28125 
z
" id="DejaVuSans-35"/>
    </defs>
    <g transform="translate(153.325312 37.2)scale(0.12 -0.12)">
     <use xlink:href="#DejaVuSans-49"/>
     <use x="29.492188" xlink:href="#DejaVuSans-74"/>
     <use x="68.701172" xlink:href="#DejaVuSans-65"/>
     <use x="130.224609" xlink:href="#DejaVuSans-72"/>
     <use x="171.337891" xlink:href="#DejaVuSans-61"/>
     <use x="232.617188" xlink:href="#DejaVuSans-74"/>
     <use x="271.826172" xlink:href="#DejaVuSans-69"/>
     <use x="299.609375" xlink:href="#DejaVuSans-6f"/>
     <use x="360.791016" xlink:href="#DejaVuSans-6e"/>
     <use x="424.169922" xlink:href="#DejaVuSans-20"/>
     <use x="455.957031" xlink:href="#DejaVuSans-35"/>
    </g>
   </g>
  </g>
 </g>
 <defs>
  <clipPath id="pf1c80b7370">
   <rect height="271.8" width="279" x="45" y="43.2"/>
  </clipPath>
 </defs>
</svg>
